<svg version="1.1" id="Layer_1" xmlns="http://www.w3.org/2000/svg" xmlns:xlink="http://www.w3.org/1999/xlink" x="0px" y="0px"
	 width="100%" viewBox="0 0 973 651" enable-background="new 0 0 973 651" xml:space="preserve">
<path fill="#FDFDFD" opacity="1.000000" stroke="none" 
	d="
M624.000000,652.000000 
	C416.000061,652.000000 208.500122,652.000000 1.000139,652.000000 
	C1.000093,435.000122 1.000093,218.000259 1.000046,1.000285 
	C325.333099,1.000190 649.666199,1.000190 973.999512,1.000095 
	C973.999634,217.999710 973.999634,434.999420 973.999817,651.999573 
	C857.500000,652.000000 741.000000,652.000000 624.000000,652.000000 
M394.844910,520.196167 
	C395.138824,520.004211 395.318695,519.735779 395.002472,519.185791 
	C395.002472,519.185791 395.384064,519.403809 395.870911,519.208069 
	C396.187775,518.802307 396.504639,518.396484 397.111328,517.863159 
	C397.111328,517.863159 397.208954,517.561890 397.789185,517.243408 
	C398.050385,516.893188 398.311554,516.542969 399.141113,515.917236 
	C400.458221,514.644165 401.802856,513.398193 403.088379,512.093933 
	C436.768097,477.923309 470.445251,443.750183 504.115417,409.570160 
	C550.060852,362.929077 596.006165,316.287842 641.930359,269.625946 
	C645.457581,266.042053 648.817566,262.293671 653.199402,257.613342 
	C610.322021,263.716827 568.983093,269.601288 527.644226,275.485748 
	C527.448120,275.045288 527.251953,274.604858 527.055847,274.164398 
	C571.827698,211.575104 616.599487,148.985825 661.575806,86.110641 
	C659.296570,86.110641 657.641663,86.011627 656.001404,86.125168 
	C618.860413,88.696175 581.728333,91.407196 544.571899,93.730377 
	C540.004944,94.015923 537.515381,95.474968 535.234863,99.282692 
	C515.995789,131.405914 496.605652,163.438980 477.186005,195.453720 
	C448.618317,242.549652 419.999176,289.614410 391.378662,336.678253 
	C383.994934,348.820160 376.524200,360.909149 368.408234,374.139465 
	C408.569092,364.521912 447.438599,355.213593 486.872314,345.770203 
	C462.855286,386.190765 439.224945,425.951691 415.604279,465.718384 
	C406.688416,480.728790 397.794952,495.752502 388.372772,511.145752 
	C387.921448,512.098389 387.470123,513.050964 386.793915,514.170959 
	C386.793915,514.170959 386.789978,514.451233 386.294769,514.821106 
	C386.181061,515.209290 386.067352,515.597412 385.533325,516.351929 
	C385.337860,516.863342 385.142395,517.374817 384.394257,518.289246 
	C380.600525,525.014160 376.796082,531.733032 373.019257,538.467468 
	C371.784912,540.668396 370.785645,542.849731 374.586426,543.963867 
	C369.505463,559.078674 364.457977,574.204834 359.329285,589.303406 
	C356.816437,596.701172 352.765076,599.715393 344.833313,599.825867 
	C336.172821,599.946655 327.505829,599.888000 318.846161,599.700378 
	C310.742615,599.524841 308.690521,596.532104 311.291595,588.917175 
	C315.912201,575.389893 320.589417,561.881775 325.289978,548.382019 
	C327.542053,541.914246 332.762726,538.140747 339.576141,538.063660 
	C347.238739,537.977051 354.904266,538.074646 362.564484,537.907837 
	C364.025452,537.875977 366.192474,537.423828 366.797150,536.420410 
	C369.928467,531.224182 372.658234,525.786072 375.741577,520.033752 
	C359.729645,520.033752 344.428314,519.460388 329.191589,520.206238 
	C315.798126,520.861816 306.384338,528.652771 301.810364,541.017761 
	C295.181671,558.937561 289.060181,577.070007 283.466125,595.339478 
	C279.148560,609.440125 286.254181,618.129578 300.935944,618.091858 
	C317.595398,618.049133 334.254974,618.041687 350.914429,617.992188 
	C366.172699,617.946838 377.503357,611.105713 382.872223,596.894836 
	C389.799347,578.559326 395.743591,559.839294 401.649567,541.139160 
	C403.458008,535.413025 403.428986,529.287292 397.670349,524.581665 
	C391.749939,529.951416 386.046631,535.272034 380.151154,540.370361 
	C378.628967,541.686707 376.503418,542.305298 374.770508,542.478760 
	C375.675598,540.938660 376.371552,539.215942 377.525940,537.893433 
	C380.682159,534.277771 384.031525,530.830750 387.208069,527.012207 
	C387.208069,527.012207 387.286987,527.317078 387.787933,527.140686 
	C387.961304,526.841919 388.134674,526.543152 388.161743,526.158142 
	C388.161743,526.158142 388.252625,526.301636 388.759247,526.129395 
	C388.941772,525.833740 389.124298,525.538025 389.164764,525.162354 
	C389.164764,525.162354 389.250092,525.301270 389.757416,525.125061 
	C389.938446,524.826416 390.119476,524.527771 390.178894,524.174927 
	C390.178894,524.174927 390.235962,524.295227 390.741882,524.120178 
	C390.928925,523.826538 391.115967,523.532898 391.166901,523.164612 
	C391.166901,523.164612 391.244110,523.299255 391.749084,523.132202 
	C391.939819,522.844238 392.130554,522.556213 392.139984,522.147156 
	C392.139984,522.147156 392.274719,522.318481 392.770294,522.156799 
	C392.964844,521.879700 393.159393,521.602600 393.023376,521.085876 
	C393.023376,521.085876 393.333740,521.351318 393.813324,521.185852 
	C394.000702,520.913879 394.188110,520.641907 394.044403,520.002441 
	C394.044403,520.002441 394.381012,520.370117 394.844910,520.196167 
M639.268066,559.213928 
	C637.472595,559.290833 635.677124,559.367737 633.160217,559.246338 
	C632.173401,559.317444 631.186523,559.388550 629.499939,559.258057 
	C627.297241,559.341492 625.094543,559.424927 622.121216,559.267456 
	C617.108154,559.331116 612.095093,559.394775 606.264771,559.257690 
	C604.151794,559.257690 602.038818,559.257690 599.664490,559.257690 
	C600.480957,556.422241 601.116638,554.214661 602.103943,551.328186 
	C603.049072,548.487976 604.345154,545.708923 604.853271,542.792542 
	C605.536438,538.871704 607.519226,537.935059 611.309265,537.981323 
	C628.470154,538.190674 645.635071,538.116699 662.797974,538.027588 
	C664.234619,538.020142 666.581543,537.514221 666.950439,536.607300 
	C669.118774,531.276917 670.825256,525.758667 672.855530,519.811157 
	C644.449646,519.811157 616.804260,519.786072 589.159546,519.906616 
	C588.098694,519.911255 586.427734,521.104675 586.080322,522.105042 
	C581.938660,534.030090 577.994385,546.023682 573.556580,558.562988 
	C572.105530,563.040405 570.654480,567.517883 568.935852,572.456360 
	C568.948425,572.633606 568.960938,572.810852 568.506348,573.526489 
	C565.422302,582.681946 562.338196,591.837341 558.895447,601.644836 
	C558.263123,603.763062 557.630798,605.881287 556.558533,608.555847 
	C555.529053,611.579163 554.499573,614.602417 553.361450,617.944702 
	C577.052002,617.944702 600.037537,617.972717 623.022888,617.925598 
	C628.980591,617.913391 636.468262,619.797058 640.465210,616.927246 
	C644.472046,614.050293 644.997131,606.322632 647.035034,600.716248 
	C647.074341,600.608215 646.951111,600.441162 646.684937,599.657593 
	C626.843079,599.657593 606.773926,599.657593 586.054749,599.657593 
	C588.675415,591.678955 591.041687,584.474609 593.520996,576.926392 
	C610.959900,576.926392 628.239014,576.926392 645.520508,576.926392 
	C647.239075,571.642273 648.742798,566.715393 650.457458,561.863098 
	C651.449158,559.056519 650.082947,559.046631 647.196106,559.242371 
	C644.805359,559.305237 642.414612,559.368103 639.268066,559.213928 
M718.285645,228.385895 
	C724.169739,215.126556 730.053894,201.867218 736.883911,188.590881 
	C759.038269,188.591782 781.194336,188.439209 803.345764,188.696121 
	C809.247681,188.764572 815.135071,190.087509 821.644897,191.161377 
	C831.616333,196.529465 836.666199,205.972931 835.258057,216.618469 
	C832.759827,235.504868 817.289795,248.868652 797.548462,248.926117 
	C764.890198,249.021194 732.229187,249.178070 699.575012,248.806961 
	C693.211365,248.734634 689.056824,250.533997 684.658081,255.080841 
	C662.652344,277.827454 640.233887,300.174866 617.952820,322.654968 
	C595.321899,345.488098 572.647888,368.278748 550.086609,391.180420 
	C547.083191,394.229156 544.227478,397.572693 541.992188,401.203735 
	C530.743530,419.476105 519.736206,437.896881 508.617401,456.249420 
	C503.484985,464.720917 498.291718,473.155548 492.798981,482.141937 
	C495.230194,482.141937 497.017670,482.142212 498.805145,482.141876 
	C578.785034,482.127899 658.764893,482.079407 738.744751,482.123383 
	C759.403137,482.134735 779.535522,479.133636 798.867371,471.797913 
	C839.109497,456.527527 870.874512,431.441864 887.639587,390.808533 
	C899.863342,361.181580 899.567200,331.448181 882.810181,303.062592 
	C880.641357,299.388763 877.870483,296.070312 875.501099,292.758606 
	C907.055298,272.880066 927.801941,245.842010 932.401123,208.325104 
	C935.777161,180.786118 928.951660,155.979568 908.715088,136.102570 
	C889.870972,117.593346 866.188232,110.237244 840.497131,110.034828 
	C783.681946,109.587212 726.860168,109.997765 670.041565,109.870705 
	C666.337341,109.862427 664.888062,111.317169 663.554810,114.303391 
	C658.878784,124.777008 653.982483,135.152145 649.196838,145.577103 
	C636.159241,173.978149 623.135376,202.385529 609.670776,231.225616 
	C611.051880,231.753281 612.432190,232.738815 613.814270,232.741486 
	C646.799011,232.805191 679.784058,232.726761 712.768799,232.803146 
	C715.747803,232.810043 717.586243,232.138229 718.285645,228.385895 
M158.098297,163.401993 
	C166.337296,171.412979 174.472565,179.535995 182.901718,187.341644 
	C184.613876,188.927124 187.406219,190.038300 189.748077,190.127975 
	C198.400299,190.459320 207.072433,190.277084 215.737076,190.276657 
	C256.727356,190.274658 297.717682,190.228561 338.707886,190.283875 
	C355.785919,190.306931 367.184235,201.351166 366.349182,216.872971 
	C365.864471,225.882568 362.337006,233.711563 356.239136,240.201218 
	C345.546936,251.580368 331.842072,256.018188 316.615082,256.043182 
	C264.460938,256.128693 212.303299,256.359711 160.155258,255.785324 
	C150.547028,255.679504 146.332687,258.640137 142.457108,267.326172 
	C114.073959,330.938995 85.028847,394.256378 56.206650,457.673370 
	C52.591061,465.628723 49.057957,473.621582 45.245281,482.136047 
	C47.572460,482.136047 49.204453,482.136505 50.836441,482.135956 
	C82.995644,482.125031 115.155403,482.021118 147.313339,482.217560 
	C151.452805,482.242828 153.392776,480.880585 155.030136,477.258728 
	C170.643234,442.722198 186.427078,408.262878 202.137527,373.770325 
	C206.972641,363.154724 211.732925,352.505066 217.032898,340.749969 
	C234.314209,388.592651 251.175308,435.272003 268.010345,481.879211 
	C305.418945,481.879211 342.492371,481.879211 380.121674,481.879211 
	C362.663025,433.527710 345.351196,385.582733 328.289703,338.331116 
	C338.638580,334.941376 349.183197,332.008820 359.322571,328.040680 
	C373.506897,322.489594 384.650085,313.870544 392.789429,299.948303 
	C414.779327,262.334686 438.230408,225.575836 461.016144,188.425339 
	C462.072418,186.703171 462.860229,184.461319 462.823608,182.479050 
	C462.482422,163.997437 455.898865,147.981644 442.569275,135.156143 
	C423.022400,116.348389 398.427216,110.173981 372.417999,110.056877 
	C283.940430,109.658485 195.459854,109.930626 106.980431,109.958710 
	C105.641823,109.959137 104.303253,110.112953 102.656158,110.214142 
	C121.300674,128.090576 139.451645,145.493774 158.098297,163.401993 
M415.776398,558.542053 
	C414.894012,578.207642 414.011627,597.873230 413.110413,617.958679 
	C421.999054,617.958679 430.463165,617.799927 438.916016,618.038879 
	C442.176025,618.131104 444.004730,617.007690 445.717255,614.292053 
	C457.696899,595.294922 469.840485,576.401184 481.934387,557.476135 
	C483.097412,555.656128 484.279602,553.848328 485.452881,552.034912 
	C485.725311,552.188477 485.997742,552.341980 486.270172,552.495483 
	C485.306244,574.188477 484.342346,595.881470 483.362122,617.940918 
	C493.314026,617.940918 502.778229,618.064087 512.231750,617.801514 
	C513.572876,617.764221 515.266357,616.106873 516.114136,614.767273 
	C528.124390,595.790100 540.051086,576.759705 551.924927,557.696655 
	C559.627930,545.329834 567.212097,532.888916 575.258423,519.816833 
	C567.695068,519.816833 560.911621,519.991882 554.144165,519.738770 
	C551.020691,519.622009 549.371155,520.819214 547.887512,523.406189 
	C543.005615,531.918335 537.936707,540.324402 532.873230,548.731201 
	C524.437866,562.736145 515.951111,576.710022 506.703461,591.989990 
	C507.547363,567.002502 508.339966,543.534058 509.140961,519.817078 
	C501.317780,519.817078 494.324921,519.681824 487.345215,519.924683 
	C485.847351,519.976807 483.822540,521.018433 483.014374,522.245544 
	C475.513245,533.635315 468.216919,545.160217 460.878174,556.656677 
	C453.494995,568.222778 446.131073,579.801147 437.977631,592.600281 
	C439.798431,567.482300 441.509460,543.878662 443.235077,520.073975 
	C434.033417,520.073975 425.645691,520.073975 415.836151,520.073975 
	C415.836151,532.807190 415.836151,545.246826 415.776398,558.542053 
M686.836304,611.335510 
	C689.934326,602.052002 693.032349,592.768433 696.204773,583.262024 
	C703.119263,583.262024 709.932373,583.392761 716.736206,583.198914 
	C719.537720,583.119141 720.722290,584.093140 721.649170,586.736694 
	C724.891113,595.982544 728.370056,605.149841 732.001953,614.250061 
	C732.599609,615.747437 734.380676,617.778809 735.679626,617.827271 
	C744.263611,618.147156 752.865234,617.992615 762.132324,617.992615 
	C756.940674,605.525452 752.006775,593.677185 746.972168,581.587036 
	C762.657959,579.965088 771.440735,571.266541 775.293274,556.912720 
	C776.367981,552.908569 777.930481,549.036499 779.237305,545.093262 
	C785.068054,527.500183 779.636108,519.895386 761.048096,519.806702 
	C741.899109,519.715393 722.749512,519.742859 703.600220,519.720520 
	C699.468933,519.715637 695.337585,519.719788 691.309265,519.719788 
	C680.280762,552.620850 669.414246,585.038757 658.431946,617.801880 
	C667.557068,617.801880 676.001587,617.801880 684.565063,617.801880 
	C685.251953,615.809814 685.895630,613.942810 686.836304,611.335510 
M195.183228,529.692932 
	C185.406174,558.975342 175.629135,588.257812 165.697845,618.002197 
	C173.692551,618.002197 181.171326,617.844482 188.637695,618.080322 
	C191.597046,618.173767 192.598312,617.001099 193.429001,614.389709 
	C196.642853,604.286499 200.117432,594.266235 203.583786,583.950500 
	C207.118225,583.950500 210.600174,584.010925 214.079437,583.939697 
	C227.378906,583.667419 240.719879,583.908508 253.964584,582.898560 
	C267.337341,581.878906 276.275513,574.146240 280.764160,561.506348 
	C282.821106,555.714050 284.630035,549.831665 286.466278,543.963440 
	C291.337158,528.396973 285.439941,520.232056 269.065155,519.803589 
	C268.732269,519.794861 268.399048,519.798523 268.065979,519.798218 
	C248.082214,519.776550 228.098404,519.723389 208.114685,519.747253 
	C198.392197,519.758850 198.392273,519.824036 195.183228,529.692932 
z"/>
<path fill="#201F1F" opacity="1.000000" stroke="none" 
	d="
M735.937988,188.607910 
	C730.053894,201.867218 724.169739,215.126556 717.724915,228.784943 
	C715.049561,229.833389 712.937134,231.039917 710.819885,231.048538 
	C679.734253,231.175171 648.647949,231.150360 617.561768,231.131714 
	C615.076477,231.130234 612.591248,230.909348 610.106018,230.790405 
	C623.135376,202.385529 636.159241,173.978149 649.196838,145.577103 
	C653.982483,135.152145 658.878784,124.777008 663.554810,114.303391 
	C664.888062,111.317169 666.337341,109.862427 670.041565,109.870705 
	C726.860168,109.997765 783.681946,109.587212 840.497131,110.034828 
	C866.188232,110.237244 889.870972,117.593346 908.715088,136.102570 
	C928.951660,155.979568 935.777161,180.786118 932.401123,208.325104 
	C927.801941,245.842010 907.055298,272.880066 875.501099,292.758606 
	C877.870483,296.070312 880.641357,299.388763 882.810181,303.062592 
	C899.567200,331.448181 899.863342,361.181580 887.639587,390.808533 
	C870.874512,431.441864 839.109497,456.527527 798.867371,471.797913 
	C779.535522,479.133636 759.403137,482.134735 738.744751,482.123383 
	C658.764893,482.079407 578.785034,482.127899 498.805145,482.141876 
	C497.017670,482.142212 495.230194,482.141937 492.798981,482.141937 
	C498.291718,473.155548 503.484985,464.720917 508.617401,456.249420 
	C519.736206,437.896881 530.743530,419.476105 541.992188,401.203735 
	C544.227478,397.572693 547.083191,394.229156 550.086609,391.180420 
	C572.647888,368.278748 595.321899,345.488098 617.952820,322.654968 
	C640.233887,300.174866 662.652344,277.827454 684.658081,255.080841 
	C689.056824,250.533997 693.211365,248.734634 699.575012,248.806961 
	C732.229187,249.178070 764.890198,249.021194 797.548462,248.926117 
	C817.289795,248.868652 832.759827,235.504868 835.258057,216.618469 
	C836.666199,205.972931 831.616333,196.529465 821.241333,190.656998 
	C817.247375,189.135803 813.666504,187.279144 810.065125,187.238541 
	C786.788757,186.976212 763.507874,187.083786 740.228882,187.178055 
	C738.796692,187.183853 737.368225,188.109985 735.937988,188.607910 
M692.507263,330.402588 
	C687.522827,330.402588 682.538391,330.402588 677.508301,330.402588 
	C667.666748,353.280853 657.909607,375.962860 647.986206,399.031464 
	C680.702454,399.031464 712.834229,399.550781 744.937622,398.821564 
	C762.066406,398.432495 776.411133,391.265625 785.478394,375.642944 
	C795.703369,358.025665 790.895447,329.267273 759.426819,330.219391 
	C737.471008,330.883698 715.479797,330.378021 692.507263,330.402588 
M768.409058,329.473724 
	C768.409058,329.473724 768.519653,329.410583 768.409058,329.473724 
z"/>
<path fill="#201F1E" opacity="1.000000" stroke="none" 
	d="
M157.850464,163.149490 
	C139.451645,145.493774 121.300674,128.090576 102.656158,110.214142 
	C104.303253,110.112953 105.641823,109.959137 106.980431,109.958710 
	C195.459854,109.930626 283.940430,109.658485 372.417999,110.056877 
	C398.427216,110.173981 423.022400,116.348389 442.569275,135.156143 
	C455.898865,147.981644 462.482422,163.997437 462.823608,182.479050 
	C462.860229,184.461319 462.072418,186.703171 461.016144,188.425339 
	C438.230408,225.575836 414.779327,262.334686 392.789429,299.948303 
	C384.650085,313.870544 373.506897,322.489594 359.322571,328.040680 
	C349.183197,332.008820 338.638580,334.941376 328.289703,338.331116 
	C345.351196,385.582733 362.663025,433.527710 380.121674,481.879211 
	C342.492371,481.879211 305.418945,481.879211 268.010345,481.879211 
	C251.175308,435.272003 234.314209,388.592651 217.032898,340.749969 
	C211.732925,352.505066 206.972641,363.154724 202.137527,373.770325 
	C186.427078,408.262878 170.643234,442.722198 155.030136,477.258728 
	C153.392776,480.880585 151.452805,482.242828 147.313339,482.217560 
	C115.155403,482.021118 82.995644,482.125031 50.836441,482.135956 
	C49.204453,482.136505 47.572460,482.136047 45.245281,482.136047 
	C49.057957,473.621582 52.591061,465.628723 56.206650,457.673370 
	C85.028847,394.256378 114.073959,330.938995 142.457108,267.326172 
	C146.332687,258.640137 150.547028,255.679504 160.155258,255.785324 
	C212.303299,256.359711 264.460938,256.128693 316.615082,256.043182 
	C331.842072,256.018188 345.546936,251.580368 356.239136,240.201218 
	C362.337006,233.711563 365.864471,225.882568 366.349182,216.872971 
	C367.184235,201.351166 355.785919,190.306931 338.707886,190.283875 
	C297.717682,190.228561 256.727356,190.274658 215.737076,190.276657 
	C207.072433,190.277084 198.400299,190.459320 189.748077,190.127975 
	C187.406219,190.038300 184.613876,188.927124 182.901718,187.341644 
	C174.472565,179.535995 166.337296,171.412979 157.850464,163.149490 
z"/>
<path fill="#ED202B" opacity="1.000000" stroke="none" 
	d="
M388.891296,510.770203 
	C397.794952,495.752502 406.688416,480.728790 415.604279,465.718384 
	C439.224945,425.951691 462.855286,386.190765 486.872314,345.770203 
	C447.438599,355.213593 408.569092,364.521912 368.408234,374.139465 
	C376.524200,360.909149 383.994934,348.820160 391.378662,336.678253 
	C419.999176,289.614410 448.618317,242.549652 477.186005,195.453720 
	C496.605652,163.438980 515.995789,131.405914 535.234863,99.282692 
	C537.515381,95.474968 540.004944,94.015923 544.571899,93.730377 
	C581.728333,91.407196 618.860413,88.696175 656.001404,86.125168 
	C657.641663,86.011627 659.296570,86.110641 661.575806,86.110641 
	C616.599487,148.985825 571.827698,211.575104 527.055847,274.164398 
	C527.251953,274.604858 527.448120,275.045288 527.644226,275.485748 
	C568.983093,269.601288 610.322021,263.716827 653.199402,257.613342 
	C648.817566,262.293671 645.457581,266.042053 641.930359,269.625946 
	C596.006165,316.287842 550.060852,362.929077 504.115417,409.570160 
	C470.445251,443.750183 436.768097,477.923309 403.088379,512.093933 
	C401.802856,513.398193 400.458221,514.644165 398.510773,516.141724 
	C397.656616,516.764771 397.432800,517.163330 397.208984,517.561890 
	C397.208954,517.561890 397.111328,517.863159 396.672607,517.966431 
	C395.950592,518.514404 395.667328,518.959106 395.384033,519.403809 
	C395.384064,519.403809 395.002472,519.185791 394.906342,519.292480 
	C394.667145,519.722839 394.524078,520.046448 394.381012,520.370117 
	C394.381012,520.370117 394.044403,520.002441 393.922913,520.195618 
	C393.645538,520.709656 393.489655,521.030457 393.333740,521.351318 
	C393.333740,521.351318 393.023376,521.085876 392.903351,521.227295 
	C392.613800,521.685303 392.444275,522.001892 392.274719,522.318481 
	C392.274719,522.318481 392.139984,522.147156 391.949097,522.248291 
	C391.586823,522.666016 391.415466,522.982666 391.244110,523.299255 
	C391.244110,523.299255 391.166901,523.164612 390.954529,523.250977 
	C390.573395,523.656677 390.404663,523.975952 390.235962,524.295227 
	C390.235962,524.295227 390.178894,524.174927 389.959229,524.254517 
	C389.576416,524.656433 389.413239,524.978821 389.250061,525.301270 
	C389.250092,525.301270 389.164764,525.162354 388.954468,525.249878 
	C388.580322,525.658875 388.416473,525.980225 388.252625,526.301636 
	C388.252625,526.301636 388.161743,526.158142 387.953430,526.249390 
	C387.592407,526.666077 387.439697,526.991577 387.286987,527.317078 
	C387.286987,527.317078 387.208069,527.012207 386.842804,527.077759 
	C382.965576,527.107056 382.387115,525.459045 383.720795,522.461914 
	C384.354858,521.036987 384.551941,519.417542 384.946960,517.886230 
	C385.142395,517.374817 385.337860,516.863342 385.994446,515.985291 
	C386.567047,515.229492 386.678528,514.840393 386.789978,514.451233 
	C386.789978,514.451233 386.793915,514.170959 387.260132,514.016785 
	C388.114655,512.831787 388.502991,511.800995 388.891296,510.770203 
z"/>
<path fill="#212020" opacity="1.000000" stroke="none" 
	d="
M415.806274,558.114258 
	C415.836151,545.246826 415.836151,532.807190 415.836151,520.073975 
	C425.645691,520.073975 434.033417,520.073975 443.235077,520.073975 
	C441.509460,543.878662 439.798431,567.482300 437.977631,592.600281 
	C446.131073,579.801147 453.494995,568.222778 460.878174,556.656677 
	C468.216919,545.160217 475.513245,533.635315 483.014374,522.245544 
	C483.822540,521.018433 485.847351,519.976807 487.345215,519.924683 
	C494.324921,519.681824 501.317780,519.817078 509.140961,519.817078 
	C508.339966,543.534058 507.547363,567.002502 506.703461,591.989990 
	C515.951111,576.710022 524.437866,562.736145 532.873230,548.731201 
	C537.936707,540.324402 543.005615,531.918335 547.887512,523.406189 
	C549.371155,520.819214 551.020691,519.622009 554.144165,519.738770 
	C560.911621,519.991882 567.695068,519.816833 575.258423,519.816833 
	C567.212097,532.888916 559.627930,545.329834 551.924927,557.696655 
	C540.051086,576.759705 528.124390,595.790100 516.114136,614.767273 
	C515.266357,616.106873 513.572876,617.764221 512.231750,617.801514 
	C502.778229,618.064087 493.314026,617.940918 483.362122,617.940918 
	C484.342346,595.881470 485.306244,574.188477 486.270172,552.495483 
	C485.997742,552.341980 485.725311,552.188477 485.452881,552.034912 
	C484.279602,553.848328 483.097412,555.656128 481.934387,557.476135 
	C469.840485,576.401184 457.696899,595.294922 445.717255,614.292053 
	C444.004730,617.007690 442.176025,618.131104 438.916016,618.038879 
	C430.463165,617.799927 421.999054,617.958679 413.110413,617.958679 
	C414.011627,597.873230 414.894012,578.207642 415.806274,558.114258 
z"/>
<path fill="#201F1F" opacity="1.000000" stroke="none" 
	d="
M686.687866,611.705688 
	C685.895630,613.942810 685.251953,615.809814 684.565063,617.801880 
	C676.001587,617.801880 667.557068,617.801880 658.431946,617.801880 
	C669.414246,585.038757 680.280762,552.620850 691.309265,519.719788 
	C695.337585,519.719788 699.468933,519.715637 703.600220,519.720520 
	C722.749512,519.742859 741.899109,519.715393 761.048096,519.806702 
	C779.636108,519.895386 785.068054,527.500183 779.237305,545.093262 
	C777.930481,549.036499 776.367981,552.908569 775.293274,556.912720 
	C771.440735,571.266541 762.657959,579.965088 746.972168,581.587036 
	C752.006775,593.677185 756.940674,605.525452 762.132324,617.992615 
	C752.865234,617.992615 744.263611,618.147156 735.679626,617.827271 
	C734.380676,617.778809 732.599609,615.747437 732.001953,614.250061 
	C728.370056,605.149841 724.891113,595.982544 721.649170,586.736694 
	C720.722290,584.093140 719.537720,583.119141 716.736206,583.198914 
	C709.932373,583.392761 703.119263,583.262024 696.204773,583.262024 
	C693.032349,592.768433 689.934326,602.052002 686.687866,611.705688 
M710.967651,539.196716 
	C708.167053,547.644409 705.366455,556.092102 702.413330,564.999817 
	C711.588562,564.999817 720.077820,565.015442 728.566956,564.996582 
	C746.534851,564.956726 747.616882,564.138916 752.890137,546.781799 
	C754.506104,541.462708 752.483704,538.201111 746.840942,538.147400 
	C735.024597,538.034912 723.204346,538.324524 710.967651,539.196716 
z"/>
<path fill="#201F1F" opacity="1.000000" stroke="none" 
	d="
M374.655029,543.244446 
	C376.503418,542.305298 378.628967,541.686707 380.151154,540.370361 
	C386.046631,535.272034 391.749939,529.951416 397.670349,524.581665 
	C403.428986,529.287292 403.458008,535.413025 401.649567,541.139160 
	C395.743591,559.839294 389.799347,578.559326 382.872223,596.894836 
	C377.503357,611.105713 366.172699,617.946838 350.914429,617.992188 
	C334.254974,618.041687 317.595398,618.049133 300.935944,618.091858 
	C286.254181,618.129578 279.148560,609.440125 283.466125,595.339478 
	C289.060181,577.070007 295.181671,558.937561 301.810364,541.017761 
	C306.384338,528.652771 315.798126,520.861816 329.191589,520.206238 
	C344.428314,519.460388 359.729645,520.033752 375.741577,520.033752 
	C372.658234,525.786072 369.928467,531.224182 366.797150,536.420410 
	C366.192474,537.423828 364.025452,537.875977 362.564484,537.907837 
	C354.904266,538.074646 347.238739,537.977051 339.576141,538.063660 
	C332.762726,538.140747 327.542053,541.914246 325.289978,548.382019 
	C320.589417,561.881775 315.912201,575.389893 311.291595,588.917175 
	C308.690521,596.532104 310.742615,599.524841 318.846161,599.700378 
	C327.505829,599.888000 336.172821,599.946655 344.833313,599.825867 
	C352.765076,599.715393 356.816437,596.701172 359.329285,589.303406 
	C364.457977,574.204834 369.505463,559.078674 374.625061,543.562256 
	C374.663727,543.160645 374.655029,543.244446 374.655029,543.244446 
z"/>
<path fill="#20201F" opacity="1.000000" stroke="none" 
	d="
M195.334381,529.324707 
	C198.392273,519.824036 198.392197,519.758850 208.114685,519.747253 
	C228.098404,519.723389 248.082214,519.776550 268.065979,519.798218 
	C268.399048,519.798523 268.732269,519.794861 269.065155,519.803589 
	C285.439941,520.232056 291.337158,528.396973 286.466278,543.963440 
	C284.630035,549.831665 282.821106,555.714050 280.764160,561.506348 
	C276.275513,574.146240 267.337341,581.878906 253.964584,582.898560 
	C240.719879,583.908508 227.378906,583.667419 214.079437,583.939697 
	C210.600174,584.010925 207.118225,583.950500 203.583786,583.950500 
	C200.117432,594.266235 196.642853,604.286499 193.429001,614.389709 
	C192.598312,617.001099 191.597046,618.173767 188.637695,618.080322 
	C181.171326,617.844482 173.692551,618.002197 165.697845,618.002197 
	C175.629135,588.257812 185.406174,558.975342 195.334381,529.324707 
M215.666702,547.053467 
	C213.634247,552.952148 211.601791,558.850830 209.301285,565.527405 
	C218.624557,565.527405 227.206589,565.565857 235.788147,565.519287 
	C252.996567,565.425903 254.049927,564.616394 258.999207,548.114136 
	C261.146332,540.954956 259.135529,538.140808 251.655930,538.077209 
	C243.512863,538.007935 235.368683,538.059265 227.225021,538.070496 
	C218.761078,538.082153 218.761093,538.088684 215.666702,547.053467 
z"/>
<path fill="#1B1B1B" opacity="1.000000" stroke="none" 
	d="
M559.254089,600.992798 
	C562.338196,591.837341 565.422302,582.681946 568.998169,573.471436 
	C568.707397,576.693604 567.924744,579.970825 567.142090,583.248047 
	C567.495117,583.583069 567.848083,583.918091 568.201111,584.253052 
	C570.730530,582.192322 574.494263,580.591125 575.476135,577.954163 
	C576.697327,574.674194 577.358032,570.176514 573.505737,566.768372 
	C571.937439,568.673706 570.570435,570.334534 569.203369,571.995300 
	C570.654480,567.517883 572.105530,563.040405 574.069336,558.490356 
	C576.955139,559.677063 579.265076,561.081360 581.721619,562.148438 
	C583.582825,562.957031 585.662476,563.907471 587.589844,563.800659 
	C593.864380,563.453125 598.742371,560.999512 599.949036,553.995056 
	C600.077209,553.250977 601.128967,552.665894 601.752319,552.007080 
	C601.116638,554.214661 600.480957,556.422241 599.664490,559.257690 
	C602.038818,559.257690 604.151794,559.257690 606.655518,559.787109 
	C609.405273,565.342957 620.472595,565.794067 624.427734,561.004028 
	C626.640198,560.487000 628.419922,559.973328 630.199707,559.459656 
	C631.186523,559.388550 632.173401,559.317444 633.557861,559.791748 
	C635.390686,561.224609 636.788391,562.787415 638.268066,562.869263 
	C642.245544,563.089355 646.506531,562.384399 644.274414,569.551758 
	C644.939209,569.455627 645.603943,569.359558 646.268677,569.263428 
	C647.178833,566.520874 648.088989,563.778320 648.926025,560.818359 
	C648.590942,560.225952 648.328918,559.850891 648.066833,559.475830 
	C650.082947,559.046631 651.449158,559.056519 650.457458,561.863098 
	C648.742798,566.715393 647.239075,571.642273 645.520508,576.926392 
	C628.239014,576.926392 610.959900,576.926392 593.520996,576.926392 
	C591.041687,584.474609 588.675415,591.678955 586.054749,599.657593 
	C606.773926,599.657593 626.843079,599.657593 646.684937,599.657593 
	C646.951111,600.441162 647.074341,600.608215 647.035034,600.716248 
	C644.997131,606.322632 644.472046,614.050293 640.465210,616.927246 
	C636.468262,619.797058 628.980591,617.913391 623.022888,617.925598 
	C600.037537,617.972717 577.052002,617.944702 553.361450,617.944702 
	C554.499573,614.602417 555.529053,611.579163 557.184692,608.276978 
	C564.458008,609.250244 566.811096,602.065430 563.869446,594.435303 
	C562.313171,596.646484 560.783630,598.819641 559.254089,600.992798 
M642.460571,602.288330 
	C643.037231,602.400085 643.613831,602.511841 644.190491,602.623596 
	C644.195679,602.214233 644.200806,601.804871 644.205994,601.395569 
	C643.626465,601.493042 643.046936,601.590515 642.460571,602.288330 
z"/>
<path fill="#212020" opacity="1.000000" stroke="none" 
	d="
M601.928101,551.667603 
	C601.128967,552.665894 600.077209,553.250977 599.949036,553.995056 
	C598.742371,560.999512 593.864380,563.453125 587.589844,563.800659 
	C585.662476,563.907471 583.582825,562.957031 581.721619,562.148438 
	C579.265076,561.081360 576.955139,559.677063 574.290283,558.208496 
	C577.994385,546.023682 581.938660,534.030090 586.080322,522.105042 
	C586.427734,521.104675 588.098694,519.911255 589.159546,519.906616 
	C616.804260,519.786072 644.449646,519.811157 672.855530,519.811157 
	C670.825256,525.758667 669.118774,531.276917 666.950439,536.607300 
	C666.581543,537.514221 664.234619,538.020142 662.797974,538.027588 
	C645.635071,538.116699 628.470154,538.190674 611.309265,537.981323 
	C607.519226,537.935059 605.536438,538.871704 604.853271,542.792542 
	C604.345154,545.708923 603.049072,548.487976 601.928101,551.667603 
z"/>
<path fill="#414041" opacity="1.000000" stroke="none" 
	d="
M609.888428,231.008011 
	C612.591248,230.909348 615.076477,231.130234 617.561768,231.131714 
	C648.647949,231.150360 679.734253,231.175171 710.819885,231.048538 
	C712.937134,231.039917 715.049561,229.833389 717.532043,229.081635 
	C717.586243,232.138229 715.747803,232.810043 712.768799,232.803146 
	C679.784058,232.726761 646.799011,232.805191 613.814270,232.741486 
	C612.432190,232.738815 611.051880,231.753281 609.888428,231.008011 
z"/>
<path fill="#3E3E3D" opacity="1.000000" stroke="none" 
	d="
M736.410950,188.599396 
	C737.368225,188.109985 738.796692,187.183853 740.228882,187.178055 
	C763.507874,187.083786 786.788757,186.976212 810.065125,187.238541 
	C813.666504,187.279144 817.247375,189.135803 820.933472,190.493546 
	C815.135071,190.087509 809.247681,188.764572 803.345764,188.696121 
	C781.194336,188.439209 759.038269,188.591782 736.410950,188.599396 
z"/>
<path fill="#DD3139" opacity="1.000000" stroke="none" 
	d="
M374.712769,542.861572 
	C374.655029,543.244446 374.663727,543.160645 374.705444,543.167358 
	C370.785645,542.849731 371.784912,540.668396 373.019257,538.467468 
	C376.796082,531.733032 380.600525,525.014160 384.670593,518.087769 
	C384.551941,519.417542 384.354858,521.036987 383.720795,522.461914 
	C382.387115,525.459045 382.965576,527.107056 386.890991,527.230103 
	C384.031525,530.830750 380.682159,534.277771 377.525940,537.893433 
	C376.371552,539.215942 375.675598,540.938660 374.712769,542.861572 
z"/>
<path fill="#212020" opacity="1.000000" stroke="none" 
	d="
M569.069580,572.225830 
	C570.570435,570.334534 571.937439,568.673706 573.505737,566.768372 
	C577.358032,570.176514 576.697327,574.674194 575.476135,577.954163 
	C574.494263,580.591125 570.730530,582.192322 568.201111,584.253052 
	C567.848083,583.918091 567.495117,583.583069 567.142090,583.248047 
	C567.924744,579.970825 568.707397,576.693604 569.231689,573.202209 
	C568.960938,572.810852 568.948425,572.633606 569.069580,572.225830 
z"/>
<path fill="#212020" opacity="1.000000" stroke="none" 
	d="
M623.995117,561.007324 
	C620.472595,565.794067 609.405273,565.342957 607.064148,559.887451 
	C612.095093,559.394775 617.108154,559.331116 622.618774,559.688660 
	C623.409241,560.408997 623.702209,560.708191 623.995117,561.007324 
z"/>
<path fill="#212020" opacity="1.000000" stroke="none" 
	d="
M559.074768,601.318848 
	C560.783630,598.819641 562.313171,596.646484 563.869446,594.435303 
	C566.811096,602.065430 564.458008,609.250244 557.404663,607.998779 
	C557.630798,605.881287 558.263123,603.763062 559.074768,601.318848 
z"/>
<path fill="#212020" opacity="1.000000" stroke="none" 
	d="
M648.999084,561.035767 
	C648.088989,563.778320 647.178833,566.520874 646.268677,569.263428 
	C645.603943,569.359558 644.939209,569.455627 644.274414,569.551758 
	C646.506531,562.384399 642.245544,563.089355 638.268066,562.869263 
	C636.788391,562.787415 635.390686,561.224609 633.918579,559.890930 
	C635.677124,559.367737 637.472595,559.290833 639.781738,559.669006 
	C643.196594,560.427979 646.097839,560.731873 648.999084,561.035767 
z"/>
<path fill="#121111" opacity="1.000000" stroke="none" 
	d="
M648.926025,560.818359 
	C646.097839,560.731873 643.196594,560.427979 640.159607,559.777527 
	C642.414612,559.368103 644.805359,559.305237 647.631470,559.359131 
	C648.328918,559.850891 648.590942,560.225952 648.926025,560.818359 
z"/>
<path fill="#121111" opacity="1.000000" stroke="none" 
	d="
M624.427734,561.004028 
	C623.702209,560.708191 623.409241,560.408997 623.004089,559.809082 
	C625.094543,559.424927 627.297241,559.341492 629.849854,559.358887 
	C628.419922,559.973328 626.640198,560.487000 624.427734,561.004028 
z"/>
<path fill="#DD3139" opacity="1.000000" stroke="none" 
	d="
M388.632019,510.957977 
	C388.502991,511.800995 388.114655,512.831787 387.372559,513.933105 
	C387.470123,513.050964 387.921448,512.098389 388.632019,510.957977 
z"/>
<path fill="#DD3139" opacity="1.000000" stroke="none" 
	d="
M395.627472,519.305908 
	C395.667328,518.959106 395.950592,518.514404 396.527649,518.030212 
	C396.504639,518.396484 396.187775,518.802307 395.627472,519.305908 
z"/>
<path fill="#DD3139" opacity="1.000000" stroke="none" 
	d="
M389.503723,525.213135 
	C389.413239,524.978821 389.576416,524.656433 390.020020,524.281616 
	C390.119476,524.527771 389.938446,524.826416 389.503723,525.213135 
z"/>
<path fill="#DD3139" opacity="1.000000" stroke="none" 
	d="
M387.537476,527.228882 
	C387.439697,526.991577 387.592407,526.666077 388.026550,526.292480 
	C388.134674,526.543152 387.961304,526.841919 387.537476,527.228882 
z"/>
<path fill="#DD3139" opacity="1.000000" stroke="none" 
	d="
M388.505920,526.215515 
	C388.416473,525.980225 388.580322,525.658875 389.025513,525.289917 
	C389.124298,525.538025 388.941772,525.833740 388.505920,526.215515 
z"/>
<path fill="#DD3139" opacity="1.000000" stroke="none" 
	d="
M390.488892,524.207703 
	C390.404663,523.975952 390.573395,523.656677 391.022583,523.288330 
	C391.115967,523.532898 390.928925,523.826538 390.488892,524.207703 
z"/>
<path fill="#DD3139" opacity="1.000000" stroke="none" 
	d="
M391.496582,523.215698 
	C391.415466,522.982666 391.586823,522.666016 392.039734,522.308838 
	C392.130554,522.556213 391.939819,522.844238 391.496582,523.215698 
z"/>
<path fill="#DD3139" opacity="1.000000" stroke="none" 
	d="
M392.522522,522.237671 
	C392.444275,522.001892 392.613800,521.685303 393.068634,521.347168 
	C393.159393,521.602600 392.964844,521.879700 392.522522,522.237671 
z"/>
<path fill="#DD3139" opacity="1.000000" stroke="none" 
	d="
M393.573547,521.268555 
	C393.489655,521.030457 393.645538,520.709656 394.088470,520.379395 
	C394.188110,520.641907 394.000702,520.913879 393.573547,521.268555 
z"/>
<path fill="#DD3139" opacity="1.000000" stroke="none" 
	d="
M394.612976,520.283142 
	C394.524078,520.046448 394.667145,519.722839 395.097382,519.395081 
	C395.318695,519.735779 395.138824,520.004211 394.612976,520.283142 
z"/>
<path fill="#DD3139" opacity="1.000000" stroke="none" 
	d="
M397.499084,517.402649 
	C397.432800,517.163330 397.656616,516.764771 398.226593,516.279480 
	C398.311554,516.542969 398.050385,516.893188 397.499084,517.402649 
z"/>
<path fill="#DD3139" opacity="1.000000" stroke="none" 
	d="
M386.542389,514.636169 
	C386.678528,514.840393 386.567047,515.229492 386.204620,515.802124 
	C386.067352,515.597412 386.181061,515.209290 386.542389,514.636169 
z"/>
<path fill="#FCFCFC" opacity="1.000000" stroke="none" 
	d="
M693.005859,330.398773 
	C715.479797,330.378021 737.471008,330.883698 759.426819,330.219391 
	C790.895447,329.267273 795.703369,358.025665 785.478394,375.642944 
	C776.411133,391.265625 762.066406,398.432495 744.937622,398.821564 
	C712.834229,399.550781 680.702454,399.031464 647.986206,399.031464 
	C657.909607,375.962860 667.666748,353.280853 677.508301,330.402588 
	C682.538391,330.402588 687.522827,330.402588 693.005859,330.398773 
z"/>
<path fill="#0F0E0D" opacity="1.000000" stroke="none" 
	d="
M768.464355,329.442139 
	C768.519653,329.410583 768.409058,329.473724 768.464355,329.442139 
z"/>
<path fill="#FAFAFA" opacity="1.000000" stroke="none" 
	d="
M711.176697,538.822876 
	C723.204346,538.324524 735.024597,538.034912 746.840942,538.147400 
	C752.483704,538.201111 754.506104,541.462708 752.890137,546.781799 
	C747.616882,564.138916 746.534851,564.956726 728.566956,564.996582 
	C720.077820,565.015442 711.588562,564.999817 702.413330,564.999817 
	C705.366455,556.092102 708.167053,547.644409 711.176697,538.822876 
z"/>
<path fill="#FAFAFA" opacity="1.000000" stroke="none" 
	d="
M215.787918,546.674805 
	C218.761093,538.088684 218.761078,538.082153 227.225021,538.070496 
	C235.368683,538.059265 243.512863,538.007935 251.655930,538.077209 
	C259.135529,538.140808 261.146332,540.954956 258.999207,548.114136 
	C254.049927,564.616394 252.996567,565.425903 235.788147,565.519287 
	C227.206589,565.565857 218.624557,565.527405 209.301285,565.527405 
	C211.601791,558.850830 213.634247,552.952148 215.787918,546.674805 
z"/>
<path fill="#212020" opacity="1.000000" stroke="none" 
	d="
M642.463989,601.988159 
	C643.046936,601.590515 643.626465,601.493042 644.205994,601.395508 
	C644.200806,601.804871 644.195679,602.214233 644.190491,602.623596 
	C643.613831,602.511841 643.037231,602.400085 642.463989,601.988159 
z"/>
</svg>