<svg xmlns="http://www.w3.org/2000/svg" viewBox="0 0 48 48" fill="none">
  <defs>
    <linearGradient id="shieldGrad" x1="24" y1="2" x2="24" y2="46" gradientUnits="userSpaceOnUse">
      <stop offset="0%" stop-color="#FF3B3B"/>
      <stop offset="100%" stop-color="#B91C1C"/>
    </linearGradient>
    <linearGradient id="shine" x1="12" y1="4" x2="36" y2="28" gradientUnits="userSpaceOnUse">
      <stop offset="0%" stop-color="#ffffff" stop-opacity="0.35"/>
      <stop offset="100%" stop-color="#ffffff" stop-opacity="0"/>
    </linearGradient>
    <filter id="shadow" x="-10%" y="-10%" width="120%" height="130%">
      <feDropShadow dx="0" dy="1.5" stdDeviation="1.5" flood-color="#000" flood-opacity="0.25"/>
    </filter>
  </defs>
  <!-- Shield body -->
  <path d="M24 3L6 10v12c0 11.5 7.7 22.2 18 24.8C34.3 44.2 42 33.5 42 22V10L24 3z" fill="url(#shieldGrad)" filter="url(#shadow)"/>
  <!-- Highlight / shine -->
  <path d="M24 3L6 10v12c0 11.5 7.7 22.2 18 24.8C34.3 44.2 42 33.5 42 22V10L24 3z" fill="url(#shine)"/>
  <!-- Inner border accent -->
  <path d="M24 7l-14 5.4v9.6c0 9.5 6 18.3 14 20.4 8-2.1 14-10.9 14-20.4v-9.6L24 7z" fill="none" stroke="#ffffff" stroke-opacity="0.2" stroke-width="0.8"/>
  <!-- Checkmark emblem -->
  <path d="M16 23l6 6 10-12" fill="none" stroke="#fff" stroke-width="3.2" stroke-linecap="round" stroke-linejoin="round"/>
</svg>
